<?xml version="1.0" encoding="UTF-8"?>
<svg id="Layer_2" data-name="Layer 2" xmlns="http://www.w3.org/2000/svg" viewBox="0 0 186.11 162">
  <defs>
    <style>
      .cls-1 {
        letter-spacing: -.01em;
      }

      .cls-2 {
        font-family: Arial;
        font-size: 22px;
      }

      .cls-3 {
        letter-spacing: -.01em;
      }
    </style>
  </defs>
  <g id="Layer_1-2" data-name="Layer 1">
    <path d="M36.36,143.13c-8.11,1.81-16.65-1-22.88-6.32-6.6-5.63-10.28-13.65-10.47-22.3-.21-9.09,3.12-18.23,8.79-25.3s13.97-12.42,22.7-15.48c17.76-6.23,40.33-5.41,54.74,7.94,6.82,6.32,11.42,14.75,13.91,23.65s3.29,19.92-2.72,27.9c-5.11,6.79-13.72,9.93-21.82,11.26-10.47,1.72-21.18,.31-31.71,1.35-2.71,.27-5.4,.68-8.05,1.3-1.88,.44-1.08,3.33,.8,2.89,11.56-2.7,23.49-.98,35.2-2.07,8.93-.83,18.3-3.43,25.02-9.67,7.7-7.16,9.16-17.79,7.53-27.74s-5.78-19.28-12.13-26.88c-13.6-16.27-36.72-19.49-56.38-14.41-9.68,2.5-18.94,7.22-26.06,14.33-6.87,6.86-11.38,15.93-12.55,25.58-1.13,9.31,1.29,18.78,7.35,26,5.66,6.74,14.21,11.31,23.09,11.52,2.17,.05,4.33-.19,6.45-.66,1.88-.42,1.09-3.31-.8-2.89h0Z"/>
    <path d="M54.52,98.28c1.93,0,1.93-3,0-3s-1.93,3,0,3h0Z"/>
    <path d="M85.18,93.44c1.93,0,1.93-3,0-3s-1.93,3,0,3h0Z"/>
    <path d="M70.94,104.97c.15,.18,.27,.4,.27,.64,0,.31-.04,.25,0,.12-.04,.14-.08,.22-.18,.32,.18-.19-.04,0-.07,.03,.17-.14,.02,0-.03,.02-.14,.08-.06,0,.05,0,.1,0,.2,0,.31,.02-.26-.02,.22,.03,.22,.03,.99,.15,1.93,.15,2.92-.06,.83-.18,1.65-.53,2.36-.99,.16-.11,.32-.21,.49-.31,.08-.05,.24-.07-.01,0-.06,.02-.28-.02-.05,0-.15-.02-.23-.03-.37-.11,.2,.11-.04-.07-.06-.07,.02,0,.14,.16,.14,.15l-.11-.14c.06,.12,.07,.12,.02,0-.12-.15,.03-.02,.02,.07-.03,.2,0-.29,0-.08,0,.38,.06-.26-.01,.13-.04,.2,.13-.17,0-.02-.03,.03-.15,.27-.05,.11s-.05,.05-.08,.09c-.07,.08-.15,.15-.23,.22,.21-.2,.02-.01-.05,.04s-.14,.09-.22,.14c-.15,.09-.3,.17-.46,.25-.09,.04-.18,.08-.27,.13-.22,.11,.18-.06-.05,.02-.21,.08-.41,.16-.62,.22-.37,.12-.76,.21-1.14,.28-.1,.02-.19,.03-.29,.05,.26-.04,0,0-.04,0-.24,.02-.49,.04-.73,.04-.39,0-.78-.01-1.17-.06,.35,.04-.12-.04-.22-.06-.33-.09,.02-.02,.02,0-.12-.08-.14-.09-.05-.03,.08,.04,.13,.1,.17,.18,.02,.04,.1,.33,.04,.08,.04,.18,.03,.33-.04,.5-.09,.2-.25,.38-.46,.46-.13,.05-.32,.03-.1,.06,.5,.06,1.01,.06,1.51,.08,1.06,.06,2.12,.12,3.17,.18,.78,.04,1.53-.72,1.5-1.5-.04-.85-.66-1.45-1.5-1.5-1.3-.07-2.6-.15-3.91-.22-.68-.04-1.39-.12-2.01,.22-.7,.38-1.13,1.11-1.13,1.91,0,.67,.29,1.32,.78,1.77,.58,.55,1.33,.73,2.1,.82,1.2,.15,2.42,.05,3.59-.22,2.29-.53,5.44-2.13,4.88-4.97-.25-1.26-1.35-2.3-2.66-2.27-.66,.01-1.24,.32-1.78,.67-.23,.15-.48,.28-.72,.42-.38,.2,.25-.07-.16,.07-.13,.04-.27,.09-.4,.13s-.27,.07-.41,.1c-.09,.02-.18,.04-.28,.05,.17-.02,.16-.02-.02,0-.28,.02-.56,.03-.85,.01-.02,0-.48-.05-.18,0-.29-.04-.57-.09-.86-.12-.4-.05-.77-.03-1.16,.04-.82,.14-1.52,.73-1.85,1.49-.37,.87-.22,1.71,.39,2.43,.51,.6,1.6,.57,2.12,0,.58-.64,.55-1.48,0-2.12h0Z"/>
    <path d="M55.8,96.92s0-.04,0-.07l-.05,.4s.01-.05,.02-.08l-.15,.36s.02-.05,.04-.07l-.23,.3s.04-.05,.06-.06l-.3,.23s.07-.05,.11-.06l-.36,.15s.1-.03,.15-.04l-.4,.05c.06,0,.11,0,.17,0l-.4-.05c.05,0,.1,.02,.15,.04l-.36-.15s.07,.04,.1,.06l-.3-.23s.05,.04,.07,.07l-.23-.3s.03,.05,.04,.07l-.15-.36s.02,.06,.03,.09l-.05-.4s0,.08,0,.12l.05-.4s-.02,.08-.03,.12l.15-.36s-.04,.08-.07,.12l.23-.3s-.07,.08-.12,.12l.3-.23s-.1,.07-.16,.09l.36-.15c-.06,.03-.13,.04-.19,.05l.4-.05c-.05,0-.1,0-.16,0l.4,.05s-.09-.02-.14-.04l.36,.15s-.09-.04-.13-.07l.3,.23s-.08-.07-.12-.12l.23,.3s-.07-.1-.09-.16l.15,.36c-.03-.07-.04-.13-.06-.21l.05,.4c-.01-.08-.01-.17,0-.25l-.05,.4c.01-.08,.03-.16,.07-.24l-.15,.36c.03-.07,.06-.13,.11-.19l-.23,.3s.06-.07,.09-.1l-.3,.23s.06-.04,.09-.05l-.36,.15s.07-.02,.11-.03l-.4,.05s.09,0,.13,0l-.4-.05s.08,.02,.12,.03l-.36-.15s.07,.03,.1,.06l-.3-.23s.05,.05,.07,.07l-.23-.3s.02,.02,.03,.04c.09,.17,.22,.32,.39,.42,.14,.13,.31,.22,.51,.27,.2,.06,.4,.07,.6,.03,.2,0,.39-.07,.56-.18l.3-.23c.19-.19,.31-.41,.39-.66l.05-.4c0-.27-.07-.52-.2-.76-.17-.28-.43-.56-.73-.7-.14-.07-.31-.16-.48-.18-.15-.02-.3-.05-.45-.06-.03,0-.05,0-.08,0-.14,.01-.36,.03-.51,.08-.36,.13-.47,.19-.76,.45-.12,.11-.25,.29-.32,.4-.03,.04-.06,.09-.08,.13-.1,.2-.2,.41-.24,.63-.03,.17-.06,.35-.06,.52s.04,.39,.06,.54c.03,.22,.13,.43,.23,.62,.08,.15,.21,.3,.31,.42,.03,.04,.07,.07,.11,.11,.27,.22,.53,.42,.88,.49,.17,.03,.34,.06,.51,.06,.02,0,.05,0,.07,0,.15-.01,.31-.03,.46-.06,.05,0,.09-.02,.13-.04,.15-.06,.33-.12,.47-.21s.28-.2,.4-.31,.24-.29,.32-.39c.02-.03,.05-.07,.06-.1,.06-.13,.16-.31,.19-.47,.06-.34,.1-.69-.02-1.02-.04-.12-.11-.31-.2-.44-.08-.11-.17-.23-.25-.33-.01-.02-.03-.03-.05-.04-.27-.23-.48-.37-.83-.47-.02,0-.04-.01-.06-.01-.15-.03-.3-.05-.45-.06-.04,0-.08,0-.12,0-.16,.01-.34,.03-.5,.07-.02,0-.04,.01-.06,.02-.13,.05-.27,.11-.4,.17-.02,0-.04,.02-.05,.03-.11,.08-.23,.17-.34,.26-.01,.01-.03,.02-.04,.04,0,0-.01,.01-.02,.02-.08,.09-.18,.22-.25,.32-.17,.26-.27,.65-.26,.96,0,.21,.04,.4,.13,.58,.06,.19,.16,.35,.31,.48,.14,.15,.3,.25,.48,.31,.18,.09,.37,.14,.58,.13l.4-.05c.25-.07,.47-.2,.66-.39l.23-.3c.14-.23,.2-.49,.2-.76h0Z"/>
    <path d="M87.14,91.48s0-.04,0-.07l-.05,.4s.01-.05,.02-.08l-.15,.36s.02-.05,.04-.07l-.23,.3s.04-.05,.06-.06l-.3,.23s.07-.05,.11-.06l-.36,.15s.1-.03,.15-.04l-.4,.05c.06,0,.11,0,.17,0l-.4-.05c.05,0,.1,.02,.15,.04l-.36-.15s.07,.04,.1,.06l-.3-.23s.05,.04,.07,.07l-.23-.3s.03,.05,.04,.07l-.15-.36s.02,.06,.03,.09l-.05-.4s0,.08,0,.12l.05-.4s-.02,.08-.03,.12l.15-.36s-.04,.08-.07,.12l.23-.3s-.07,.08-.12,.12l.3-.23s-.1,.07-.16,.09l.36-.15c-.06,.03-.13,.04-.19,.05l.4-.05c-.05,0-.1,0-.16,0l.4,.05s-.09-.02-.14-.04l.36,.15s-.09-.04-.13-.07l.3,.23s-.08-.07-.12-.12l.23,.3s-.07-.1-.09-.16l.15,.36c-.03-.07-.04-.13-.06-.21l.05,.4c-.01-.08-.01-.17,0-.25l-.05,.4c.01-.08,.03-.16,.07-.24l-.15,.36c.03-.07,.06-.13,.11-.19l-.23,.3s.06-.07,.09-.1l-.3,.23s.06-.04,.09-.05l-.36,.15s.07-.02,.11-.03l-.4,.05s.09,0,.13,0l-.4-.05s.08,.02,.12,.03l-.36-.15s.07,.03,.1,.06l-.3-.23s.05,.05,.07,.07l-.23-.3s.02,.02,.03,.04c.09,.17,.22,.32,.39,.42,.14,.13,.31,.22,.51,.27,.2,.06,.4,.07,.6,.03,.2,0,.39-.07,.56-.18l.3-.23c.19-.19,.31-.41,.39-.66l.05-.4c0-.27-.07-.52-.2-.76-.17-.28-.43-.56-.73-.7-.14-.07-.31-.16-.48-.18-.15-.02-.3-.05-.45-.06-.03,0-.05,0-.08,0-.14,.01-.36,.03-.51,.08-.36,.13-.47,.19-.76,.45-.12,.11-.25,.29-.32,.4-.03,.04-.06,.09-.08,.13-.1,.2-.2,.41-.24,.63-.03,.17-.06,.35-.06,.52s.04,.39,.06,.54c.03,.22,.13,.43,.23,.62,.08,.15,.21,.3,.31,.42,.03,.04,.07,.07,.11,.11,.27,.22,.53,.42,.88,.49,.17,.03,.34,.06,.51,.06,.02,0,.05,0,.07,0,.15-.01,.31-.03,.46-.06,.05,0,.09-.02,.13-.04,.15-.06,.33-.12,.47-.21s.28-.2,.4-.31,.24-.29,.32-.39c.02-.03,.05-.07,.06-.1,.06-.13,.16-.31,.19-.47,.06-.34,.1-.69-.02-1.02-.04-.12-.11-.31-.2-.44-.08-.11-.17-.23-.25-.33-.01-.02-.03-.03-.05-.04-.27-.23-.48-.37-.83-.47-.02,0-.04-.01-.06-.01-.15-.03-.3-.05-.45-.06-.04,0-.08,0-.12,0-.16,.01-.34,.03-.5,.07-.02,0-.04,.01-.06,.02-.13,.05-.27,.11-.4,.17-.02,0-.04,.02-.05,.03-.11,.08-.23,.17-.34,.26-.01,.01-.03,.02-.04,.04,0,0-.01,.01-.02,.02-.08,.09-.18,.22-.25,.32-.17,.26-.27,.65-.26,.96,0,.21,.04,.4,.13,.58,.06,.19,.16,.35,.31,.48,.14,.15,.3,.25,.48,.31,.18,.09,.37,.14,.58,.13l.4-.05c.25-.07,.47-.2,.66-.39l.23-.3c.14-.23,.2-.49,.2-.76h0Z"/>
    <path d="M105.57,102.88c9.88-.96,19.2-5.01,26.63-11.61,1.45-1.29-.68-3.4-2.12-2.12-6.79,6.04-15.46,9.85-24.5,10.73-1.9,.19-1.92,3.19,0,3h0Z"/>
    <path d="M132.72,90.02c-.05-.13-.09-.25-.11-.39l.05,.4c-.02-.16-.02-.32,0-.48l-.05,.4c.02-.14,.06-.26,.09-.4,.04-.11,.04-.1-.02,.03-.06,.13-.06,.14,0,.03,.03-.05,.05-.1,.08-.14,.08-.13,.21-.2-.04,.04,.04-.04,.07-.08,.11-.12,.06-.06,.12-.11,.17-.17,.18-.17-.23,.16-.08,.06,.11-.08,.22-.15,.34-.22,.06-.03,.12-.06,.18-.09,.05-.03,.29-.13,.04-.02-.26,.11,.03,0,.07-.02,.07-.02,.15-.05,.22-.07,.16-.05,.33-.08,.5-.1l-.4,.05c.21-.02,.42-.03,.64,0l-.4-.05c.11,.01,.21,.03,.31,.06,.06,.02,.38,.13,.11,.02s.04,.04,.09,.07c.22,.13-.26-.24-.06-.05,.05,.05,.1,.11,.16,.16-.29-.26-.13-.19-.06-.06,.03,.04,.05,.09,.07,.13l-.09-.22s.06,.23,.07,.29l-.05-.4c.01,.13,.01,.25,0,.37l.05-.4c-.03,.17-.17,.37,.05,0-.04,.06-.07,.13-.11,.19-.13,.23,.26-.28,.03-.04-.12,.12-.3,.17,.05-.01-.07,.03-.13,.09-.19,.13-.04,.03-.09,.05-.13,.07-.14,.07-.09,.05,.15-.06-.2,.03-.4,.12-.61,.15l.4-.05c-.65,.08-1.31,0-1.95-.08l.4,.05c-.18-.02-.36-.05-.53-.1-.08-.02-.21-.04-.27-.09l.21,.09s-.1-.05-.14-.08c-.04-.02-.07-.04-.1-.07-.1-.07-.05-.03,.15,.12-.14-.26-.03,.11,.06,.1-.03,0-.08-.15-.1-.18,.1,.26,.13,.31,.08,.17-.01-.04-.02-.09-.03-.13l.05,.4c-.01-.09-.01-.17,0-.26l-.05,.4c0-.06,.04-.13,.04-.19-.12,.26-.14,.32-.07,.19-.17,.2-.22,.26-.13,.18,.08-.07,.03-.03-.15,.12-.23,.08-.28,.11-.17,.07,.09-.02,.19-.05,.28-.06l-.4,.05c.56-.07,1.14-.07,1.71-.1,.49-.03,.99-.09,1.48-.03l-.4-.05c.09,.01,.18,.04,.27,.05,.24,.05-.35-.2-.09-.04,.1,.06,.04,.01-.18-.15,.1,.1,.07,.05-.11-.17,.07,.13,.05,.07-.06-.17,.02,.05,.02,.1,.03,.15l-.05-.4s0,.1,0,.15l.05-.4c0,.05-.02,.1-.03,.15-.04,.19,.05-.1,.06-.14-.09,.22,.19-.19,.08-.08-.04,.04-.18,.16,0,.02,.2-.15-.09,.05-.16,.08-.05,.02-.23,.11,0,0,.25-.11-.01,0-.05,.01-.41,.14-.83,.27-1.26,.33l.4-.05c-.24,.03-.49,.04-.73,0l.4,.05s-.32-.04-.33-.08c0,.02,.39,.17,.14,.05-.14-.07-.09-.17,.11,.09-.03-.03-.07-.08-.1-.1,.2,.15,.19,.24,.09,.1s.11,.36,.05,.13c-.02-.07-.04-.14-.05-.21l.05,.4c-.02-.14-.02-.29,0-.43l-.05,.4c.02-.12,.05-.24,.08-.36,.06-.24-.14,.27-.05,.11,.03-.06,.05-.11,.09-.17,.03-.04,.05-.08,.08-.13,.14-.23-.18,.2-.08,.1,.08-.08,.17-.16,.25-.25,.1-.11-.33,.22-.11,.09,.04-.02,.08-.05,.12-.08,.07-.04,.22-.16,.31-.16-.04,0-.38,.13-.13,.06,.06-.02,.11-.04,.17-.05,.11-.03,.23-.05,.34-.07l-.4,.05c.28-.04,.56-.04,.84,0l-.4-.05c.1,.02,.21,.04,.31,.06,.06,.01,.11,.03,.17,.05,.06,.02,.27,.11,.02,0s.07,.04,.13,.08c.04,.02,.08,.05,.12,.07,.23,.14-.29-.24-.08-.06,.31,.26,.64,.44,1.06,.44,.37,0,.81-.16,1.06-.44,.51-.55,.64-1.58,0-2.12-.58-.48-1.23-.85-1.98-.97s-1.52-.11-2.24,.16c-.82,.3-1.51,.79-2.01,1.51s-.7,1.67-.53,2.55c.18,.97,.94,1.71,1.85,2.03,.73,.26,1.57,.17,2.31,0,.78-.19,1.59-.47,2.2-1,.84-.73,1.14-2.05,.53-3.02-.97-1.55-3.04-1.13-4.58-1.05-.42,.02-.84,.03-1.25,.13-.6,.14-1.14,.52-1.46,1.04-.5,.81-.41,1.91,.12,2.68s1.38,1.19,2.3,1.33c.8,.12,1.63,.23,2.43,.14,.92-.11,1.83-.42,2.48-1.12,.69-.75,1-1.75,.76-2.75s-1.11-1.83-2.09-2.21c-.91-.35-2-.25-2.89,.09-.96,.37-1.79,.93-2.37,1.8-.55,.82-.75,2.01-.37,2.94,.15,.38,.33,.68,.69,.9,.32,.19,.8,.27,1.16,.15s.71-.34,.9-.69,.3-.79,.15-1.16h0Z"/>
    <path d="M132.29,89.19c.7-.88,1.48-1.68,2.35-2.4,.1-.08,.2-.16,.31-.25,.2-.16-.21,.16-.06,.05,.06-.04,.12-.09,.17-.13,.22-.16,.45-.32,.68-.47,.47-.31,.97-.6,1.47-.86,.7-.36,.96-1.4,.54-2.05-.46-.71-1.31-.93-2.05-.54-2.12,1.1-4.04,2.66-5.52,4.53-.26,.32-.44,.63-.44,1.06,0,.37,.16,.81,.44,1.06,.54,.5,1.6,.66,2.12,0h0Z"/>
    <path d="M27.56,113.14c-3.49-1.1-6.38,1.8-7.3,4.92-.52,1.77-.67,3.67-.86,5.5-.23,2.13-.38,4.26-.46,6.4-.31,8.45,.57,16.92,2.52,25.15,.45,1.88,3.34,1.08,2.89-.8-1.67-7.05-2.51-14.25-2.47-21.5,.02-3.56,.24-7.13,.68-10.66,.26-2.09,.93-7.14,4.21-6.11,1.85,.58,2.63-2.31,.8-2.89h0Z"/>
    <path d="M23.54,155.72c-.09,0-.17,0-.26,0l.4,.05c-.13-.02-.25-.05-.37-.1l.36,.15c-.11-.05-.2-.11-.3-.17l.3,.23c-.12-.09-.22-.19-.31-.31l.23,.3c-.08-.11-.15-.22-.2-.34l.15,.36c-.05-.12-.09-.24-.11-.37l.05,.4c-.01-.12-.02-.23,0-.35l-.05,.4c.02-.13,.05-.25,.1-.37l-.15,.36c.06-.13,.13-.25,.22-.37l-.23,.3c.09-.11,.2-.21,.31-.3l-.3,.23c.13-.1,.27-.18,.42-.24l-.36,.15c.14-.05,.28-.09,.42-.11l-.4,.05c.13-.02,.26-.02,.39,0l-.4-.05c.15,.02,.29,.06,.43,.12l-.36-.15c.14,.06,.27,.13,.39,.23l-.3-.23c.09,.08,.18,.16,.25,.25l-.23-.3c.07,.1,.13,.2,.18,.31l-.15-.36c.04,.09,.06,.18,.08,.28l-.05-.4c.02,.13,.02,.25,0,.37l.05-.4c-.02,.11-.05,.22-.09,.32l.15-.36c-.04,.09-.09,.17-.14,.25l.23-.3c-.06,.08-.13,.14-.2,.2l.3-.23c-.07,.05-.13,.09-.21,.12l.36-.15c-.09,.03-.17,.06-.26,.07l.4-.05c-.09,0-.18,0-.27,0l.4,.05c-.1-.02-.2-.04-.3-.08l.36,.15c-.08-.04-.16-.08-.23-.14l.3,.23c-.06-.05-.11-.1-.16-.16l.23,.3c-.04-.05-.07-.11-.09-.16l.15,.36v-.04c-.06-.2-.15-.37-.28-.51-.11-.16-.25-.29-.42-.39-.32-.19-.8-.27-1.16-.15s-.71,.34-.9,.69-.3,.79-.15,1.16,.31,.72,.62,1,.63,.46,1.03,.59c.19,.06,.41,.08,.61,.1,.08,0,.17,0,.25,0,.42-.04,.82-.12,1.17-.36s.63-.51,.85-.86c.1-.17,.18-.36,.24-.54,.03-.09,.06-.18,.08-.28,.08-.45,.08-.8,0-1.25-.03-.14-.08-.27-.14-.4-.06-.15-.12-.3-.21-.43-.43-.62-1-1.05-1.72-1.28-.09-.03-.19-.05-.29-.06-.21-.03-.43-.07-.64-.06-.31,.01-.64,.05-.93,.16s-.57,.22-.82,.41c-.37,.27-.6,.51-.87,.88-.18,.24-.3,.53-.39,.81-.03,.08-.04,.17-.06,.25-.03,.22-.08,.44-.06,.66,.06,.77,.36,1.51,.93,2.05s1.34,.89,2.12,.83c.4-.03,.77-.14,1.06-.44,.26-.26,.46-.69,.44-1.06s-.14-.79-.44-1.06c-.28-.26-.67-.47-1.06-.44h0Z"/>
    <path d="M43.67,148.54l-.19,9.94c-.01,.78,.7,1.54,1.5,1.5s1.48-.66,1.5-1.5l.19-9.94c.01-.78-.7-1.54-1.5-1.5s-1.48,.66-1.5,1.5h0Z"/>
    <path d="M45.19,161.48c.07-.01,.13-.02,.2-.03l-.4,.05c.58-.08,1.17-.08,1.76,0l-.4-.05c.58,.08,1.15,.23,1.7,.46l-.36-.15s.08,.04,.12,.05c.38,.17,.74,.27,1.16,.15,.35-.1,.73-.36,.9-.69,.18-.35,.28-.77,.15-1.16-.11-.35-.34-.74-.69-.9-.41-.18-.82-.35-1.25-.47s-.88-.19-1.33-.24c-.79-.1-1.57-.04-2.36,.09-.35,.06-.73,.4-.9,.69-.19,.32-.27,.8-.15,1.16s.34,.71,.69,.9l.36,.15c.27,.07,.53,.07,.8,0h0Z"/>
    <path d="M68.13,148.37c0,3.14,0,6.28,0,9.42,0,.78,.69,1.54,1.5,1.5s1.5-.66,1.5-1.5c0-3.14,0-6.28,0-9.42,0-.78-.69-1.54-1.5-1.5s-1.5,.66-1.5,1.5h0Z"/>
    <path d="M69.63,159.6l3.6,.12c.79,.03,1.54-.71,1.5-1.5-.04-.84-.66-1.47-1.5-1.5l-3.6-.12c-.79-.03-1.54,.71-1.5,1.5,.04,.84,.66,1.47,1.5,1.5h0Z"/>
    <path d="M100.44,66.66c-.42-5.38,.13-10.74,1.66-15.92,.55-1.86-2.35-2.65-2.89-.8-1.6,5.41-2.21,11.09-1.77,16.72,.06,.81,.64,1.5,1.5,1.5,.76,0,1.56-.69,1.5-1.5h0Z"/>
    <path d="M105.02,71.14c5.29,.4,10.62-.44,15.5-2.51,.75-.32,.91-1.42,.54-2.05-.45-.77-1.3-.85-2.05-.54-4.38,1.85-9.27,2.45-13.99,2.1-.81-.06-1.5,.73-1.5,1.5,0,.86,.69,1.44,1.5,1.5h0Z"/>
    <path d="M101.68,49.62c-1.38-13.03,3.67-26.3,13.07-35.37S138.16,1.29,151.22,3.72c12.98,2.42,24.57,10.7,29.52,23.17,2.29,5.76,3.15,12.2,1.64,18.27-1.63,6.54-5.97,11.96-11.42,15.78-12.48,8.75-29.44,10.69-44.01,7.04-1.89-.47-3.75-1.05-5.59-1.7s-2.61,2.25-.8,2.89c15.45,5.51,33.68,4.71,48.16-3.3,6.23-3.45,11.84-8.52,14.84-15.07,2.84-6.2,3.2-13.17,1.64-19.76-3.29-13.91-14.28-24.57-27.72-28.85-13.5-4.3-29.06-2.31-40.5,6.25-11.22,8.39-18.3,22.01-18.53,36.04-.03,1.72,.06,3.43,.24,5.13,.2,1.9,3.2,1.92,3,0h0Z"/>
    <text class="cls-2" transform="translate(116.84 29.33)"><tspan x="0" y="0">Exit </tspan><tspan x="0" y="28.8" xml:space="preserve"> he</tspan><tspan class="cls-1" x="30.43" y="28.8">r</tspan><tspan class="cls-3" x="38.04" y="28.8">e</tspan><tspan x="49.78" y="28.8">.</tspan></text>
  </g>
</svg>