<?xml version="1.0" encoding="UTF-8"?>
<svg id="Layer_2" data-name="Layer 2" xmlns="http://www.w3.org/2000/svg" viewBox="0 0 222.62 123.84">
  <defs>
    <style>
      .cls-1 {
        letter-spacing: 0em;
      }

      .cls-2 {
        font-family: MyriadPro-Regular, 'Myriad Pro';
        font-size: 24px;
      }

      .cls-3 {
        letter-spacing: -.01em;
      }

      .cls-4 {
        letter-spacing: 0em;
      }
    </style>
  </defs>
  <g id="Layer_1-2" data-name="Layer 1">
    <path d="M50.33,110.55c-16.44-.55-36.68-3.13-44.96-19.63-3.77-7.52-2.73-16.3,1.31-23.48s11.41-12.77,19.14-16.31c15.04-6.9,34.05-8.81,49.11-.96,12.58,6.56,21.59,21.35,18.94,35.75-1.42,7.71-6.32,14.13-12.72,18.49-7.57,5.16-16.63,7.39-25.64,8.34-2.38,.25-4.77,.42-7.16,.54-1.92,.1-1.93,3.1,0,3,10-.53,20.21-1.85,29.28-6.35,7.69-3.82,14.39-9.96,17.63-18.03,5.88-14.65-1.44-31.95-13.54-41.04-14.61-10.97-35.21-10.59-51.72-4.66-8.52,3.06-16.85,7.73-22.6,14.88S-1.35,77.31,.57,86.24c1.75,8.14,7.58,14.85,14.49,19.22,8.27,5.23,18.17,7.01,27.79,7.71,2.49,.18,4.99,.29,7.49,.37,1.93,.06,1.93-2.94,0-3h0Z"/>
    <path d="M49.85,69.92c1.93,0,1.93-3,0-3s-1.93,3,0,3h0Z"/>
    <path d="M77.85,67.92c1.93,0,1.93-3,0-3s-1.93,3,0,3h0Z"/>
    <path d="M64.61,81.23c.09-.05,.17-.09,.26-.14,.24-.13-.22,.07-.04,.01s.34-.12,.52-.17c.06-.02,.47-.06,.49-.1-.22,.03-.27,.04-.15,.02,.05,0,.1,0,.15-.01,.08,0,.17,0,.25,0,.17,0,.33,0,.5,.02,.25,.02,.06,.04-.05,0,.07,.03,.21,.04,.29,.06,.16,.04,.32,.08,.48,.14,.05,.02,.09,.03,.14,.05,.11,.04,.06,.02-.13-.06,.02-.02,.25,.12,.27,.13l-.54-2.05c-.06,.13-.13,.26-.21,.38-.14,.22-.02,.02,.07-.07-.05,.05-.09,.11-.14,.16-.1,.11-.2,.2-.3,.29-.2,.19,.31-.21,.08-.06-.06,.04-.12,.08-.18,.12-.12,.08-.24,.15-.37,.21-.12,.06-.32,.09,.1-.04-.07,.02-.13,.05-.2,.07-.14,.05-.27,.09-.41,.12-.07,.02-.14,.03-.21,.04-.14,.02-.33,0,.11-.01-.29,0-.57,.03-.86,0-.26-.02,.39,.07,.11,.02-.07-.01-.14-.02-.21-.04-.14-.03-.28-.07-.41-.11-.07-.02-.13-.05-.2-.07,.12,.03,.34,.15,.1,.03-.12-.06-.23-.12-.33-.19-.05-.03-.27-.2-.05-.03s0,0-.04-.04c-.12-.11-.22-.22-.32-.34-.5-.61-1.61-.56-2.12,0-.59,.65-.53,1.47,0,2.12,2.18,2.66,7.1,2.04,8.58-1.05,.34-.7,.23-1.65-.54-2.05-1.88-.98-4.13-.98-5.98,.06-.69,.38-.97,1.38-.54,2.05s1.32,.95,2.05,.54h0Z"/>
    <path d="M63.35,114.92v5.5c0,.78,.69,1.54,1.5,1.5s1.5-.66,1.5-1.5v-5.5c0-.78-.69-1.54-1.5-1.5s-1.5,.66-1.5,1.5h0Z"/>
    <path d="M64.85,121.92h3.5c.38,0,.79-.17,1.06-.44s.46-.69,.44-1.06c-.04-.81-.66-1.5-1.5-1.5h-3.5c-.38,0-.79,.17-1.06,.44s-.46,.69-.44,1.06c.04,.81,.66,1.5,1.5,1.5h0Z"/>
    <path d="M41.85,114.42v6.5c0,.78,.69,1.54,1.5,1.5s1.5-.66,1.5-1.5v-6.5c0-.78-.69-1.54-1.5-1.5s-1.5,.66-1.5,1.5h0Z"/>
    <path d="M42.98,122.29l4,1.5c.35,.13,.85,.03,1.16-.15s.61-.54,.69-.9c.09-.38,.07-.81-.15-1.16s-.51-.55-.9-.69l-4-1.5c-.35-.13-.85-.03-1.16,.15s-.61,.54-.69,.9c-.09,.38-.07,.81,.15,1.16s.51,.55,.9,.69h0Z"/>
    <path d="M95.85,77.48c9.58,.06,19.14-1.18,28.38-3.68,1.86-.5,1.07-3.4-.8-2.89-9,2.44-18.26,3.63-27.59,3.58-1.93-.01-1.93,2.99,0,3h0Z"/>
    <path d="M124.46,73.36c.06,.02,.11,.03,.17,.06l-.36-.15c.1,.04,.19,.1,.27,.16l-.3-.23c.09,.07,.17,.16,.25,.25l-.23-.3c.08,.1,.14,.21,.19,.33l-.15-.36c.04,.11,.07,.22,.09,.34l-.05-.4c.01,.11,.01,.21,0,.32l.05-.4v.03c.34-.35,.69-.7,1.04-1.05-.06,.01-.11,.02-.17,.03l.4-.05c-.13,.02-.26,.01-.4,0l.4,.05c-.14-.02-.28-.06-.41-.12l.36,.15c-.13-.06-.25-.13-.37-.22l.3,.23c-.1-.08-.2-.18-.28-.28l.23,.3c-.08-.1-.14-.2-.19-.32l.15,.36c-.02-.05-.04-.11-.06-.16l-.39,1.46c.43-.35,.86-.71,1.29-1.06,.15-.14,.25-.3,.31-.48,.09-.18,.14-.37,.13-.58,0-.21-.04-.4-.13-.58-.06-.19-.16-.35-.31-.48-.29-.26-.66-.46-1.06-.44l-.4,.05c-.25,.07-.47,.2-.66,.39-.43,.35-.86,.71-1.29,1.06-.19,.19-.31,.41-.39,.66-.07,.27-.07,.53,0,.8,.06,.21,.15,.43,.26,.62s.26,.38,.39,.54c.07,.08,.14,.16,.22,.22,.17,.14,.35,.29,.55,.41,.7,.4,1.52,.52,2.3,.32,.25-.07,.47-.2,.66-.39,.19-.19,.31-.41,.39-.66,.03-.2,.08-.42,.07-.63s-.04-.42-.08-.63-.14-.39-.22-.58c-.03-.08-.07-.16-.12-.23-.2-.31-.41-.54-.7-.76s-.59-.39-.95-.49-.82-.05-1.16,.15c-.17,.09-.32,.22-.42,.39-.13,.14-.22,.31-.27,.51-.09,.38-.07,.81,.15,1.16s.51,.58,.9,.69h0Z"/>
    <path d="M125.35,72.92h2c.38,0,.79-.17,1.06-.44,.15-.14,.25-.3,.31-.48,.09-.18,.14-.37,.13-.58-.02-.39-.14-.79-.44-1.06s-.65-.44-1.06-.44h-2c-.38,0-.79,.17-1.06,.44-.15,.14-.25,.3-.31,.48-.09,.18-.14,.37-.13,.58,.02,.39,.14,.79,.44,1.06s.65,.44,1.06,.44h0Z"/>
    <path d="M28.58,93.57c-2.39,8.48-4.15,17.11-5.32,25.84-.11,.81,.77,1.49,1.5,1.5,.9,0,1.39-.7,1.5-1.5,1.13-8.46,2.9-16.83,5.22-25.04,.53-1.86-2.37-2.66-2.89-.8h0Z"/>
    <path d="M24.84,121.9l1.23,.05-1.3-2.26s-.04,.06-.06,.08l.23-.3s-.08,.09-.12,.12l.3-.23s-.1,.06-.15,.09l.36-.15c-.07,.03-.14,.05-.21,.06l.4-.05c-.09,.01-.19,.01-.28,0l.4,.05c-.11-.01-.21-.04-.31-.08l.36,.15c-.09-.04-.17-.08-.24-.14l.3,.23c-.06-.05-.11-.1-.16-.16l.23,.3c-.04-.05-.07-.1-.1-.16l.15,.36c-.02-.06-.04-.12-.05-.18l.05,.4c0-.05,0-.1,0-.15,0-.21-.04-.4-.13-.58-.06-.19-.16-.35-.31-.48-.14-.15-.3-.25-.48-.31-.18-.09-.37-.14-.58-.13-.39,.02-.79,.14-1.06,.44l-.23,.3c-.14,.23-.2,.49-.2,.76,0,.04,0,.08,0,.12,0,.15,.03,.3,.06,.45,0,.02,0,.04,.01,.06,0,.04,.02,.07,.04,.1,.06,.15,.11,.31,.2,.45s.19,.27,.29,.39c.03,.03,.05,.06,.08,.09,.12,.11,.25,.2,.38,.3,.03,.02,.07,.05,.1,.07s.07,.04,.11,.06c.15,.07,.3,.14,.46,.19,.2,.07,.43,.09,.63,.11,.08,0,.16,.01,.24,0,.16-.02,.33-.03,.49-.07,.04,0,.08-.02,.12-.03,.15-.06,.31-.12,.46-.2s.28-.2,.4-.3c.03-.03,.06-.06,.09-.09,.09-.11,.19-.23,.27-.35,.01-.02,.03-.04,.04-.06,.27-.47,.27-1.05,0-1.51-.13-.23-.31-.4-.54-.54-.23-.14-.49-.2-.76-.2l-1.23-.05c-.21,0-.4,.04-.58,.13-.19,.06-.35,.16-.48,.31-.15,.14-.25,.3-.31,.48-.09,.18-.14,.37-.13,.58,.02,.39,.14,.79,.44,1.06l.3,.23c.23,.14,.49,.2,.76,.2h0Z"/>
    <path d="M93.59,47.13c2.78-3.21,5.57-6.42,8.35-9.63,.53-.61,.6-1.52,0-2.12-.54-.54-1.59-.61-2.12,0-2.78,3.21-5.57,6.42-8.35,9.63-.53,.61-.6,1.52,0,2.12,.54,.54,1.59,.61,2.12,0h0Z"/>
    <path d="M100.85,53.41c4.33,0,8.67,0,13,0,1.93,0,1.93-3,0-3-4.33,0-8.67,0-13,0-1.93,0-1.93,3,0,3h0Z"/>
    <text class="cls-2" transform="translate(116.35 36.91)"><tspan x="0" y="0">Exit he</tspan><tspan class="cls-4" x="66.91" y="0">r</tspan><tspan class="cls-3" x="74.52" y="0">e</tspan><tspan class="cls-1" x="86.25" y="0">.</tspan></text>
    <path d="M103.56,34.94c-2.81-7.92,2.94-15.35,9.45-19.21,3.64-2.16,7.63-3.65,11.64-4.97,4.34-1.43,8.77-2.58,13.24-3.52,9.01-1.88,18.18-2.86,27.36-3.44s18.33-1.26,27.38-.46c7.86,.7,15.8,3.15,21.44,8.91,5.22,5.33,6.85,12.64,4.51,19.72-5.46,16.53-24.53,20.81-39.79,22.21-9.58,.88-19.21,.86-28.82,.65-9.3-.21-18.79-.11-27.98-1.72-2.22-.39-4.42-.9-6.59-1.53-1.86-.54-2.65,2.35-.8,2.89,9.49,2.76,19.44,2.93,29.25,3.2s20.55,.52,30.8-.16c16.58-1.1,36.95-4.38,45.23-20.9,3.53-7.05,3.91-15.37-.32-22.21s-11.64-11.06-19.28-12.87C190.84-.69,180.9,.03,171.32,.48s-19.56,1.25-29.21,2.92-18.61,3.92-27.13,7.91c-7.57,3.54-14.49,9.75-15.12,18.59-.14,1.97,.14,3.97,.8,5.83s3.54,1.03,2.89-.8h0Z"/>
  </g>
</svg>