<?xml version="1.0" encoding="UTF-8"?>
<svg id="Layer_2" data-name="Layer 2" xmlns="http://www.w3.org/2000/svg" viewBox="0 0 86.96 86.35">
  <g id="Layer_1-2" data-name="Layer 1">
    <path d="M43.58,2.94c14.78,2.17,28.68,10.18,35.86,23.6s5.48,31.21-3.58,43.67c-4.82,6.63-11.96,11.5-19.99,13.2-1.89,.4-1.09,3.29,.8,2.89,16.04-3.4,26.86-17.86,29.58-33.45,1.46-8.38,.72-16.77-2.65-24.6-3.09-7.16-8.13-13.33-14.32-18.04C62.06,4.73,53.32,1.36,44.38,.05c-1.89-.28-2.7,2.61-.8,2.89h0Z"/>
    <path d="M44.75,.33c-4.3-.8-8.68-.05-12.79,1.32s-7.89,3.17-11.45,5.44C13.38,11.64,7.54,18.13,4.04,25.86,.64,33.38-.71,41.81,.36,50.01c1.03,7.87,4.29,15.2,9.34,21.31,5.5,6.64,13.03,11.58,21.36,13.82,1.87,.5,2.66-2.39,.8-2.89-13.83-3.71-24.9-15.32-27.97-29.3C.52,37.61,6.66,21.11,19.17,11.66c3.46-2.62,7.35-4.73,11.39-6.32s8.88-2.96,13.39-2.12c1.89,.35,2.7-2.54,.8-2.89h0Z"/>
    <path d="M12.45,62.64c2.37,1.33,3.39,3.99,4.61,6.27s2.78,4.47,5.18,5.5c2.68,1.15,5.99-.18,8.43,1.52,2.24,1.55,2.49,4.49,1,6.64-1.1,1.59,1.5,3.09,2.59,1.51,1.76-2.54,1.87-6.11,.06-8.67-.83-1.17-1.94-2.1-3.25-2.68-1.63-.71-3.33-.67-5.08-.68-1.63-.01-2.97-.33-4.16-1.51-.99-.98-1.69-2.21-2.34-3.44-1.42-2.69-2.77-5.51-5.54-7.06-1.68-.95-3.2,1.64-1.51,2.59h0Z"/>
    <path d="M13.96,61.89c2.58-.79,4.8,1.13,6.5,2.83,1.78,1.79,3.5,3.7,5.88,4.69,4.3,1.79,9.56-.96,10.37-5.62,.33-1.89-2.56-2.7-2.89-.8s-1.61,3.33-3.42,3.85c-2.04,.59-3.92-.51-5.4-1.84-3.33-2.98-6.69-7.59-11.83-6.01-1.84,.57-1.05,3.46,.8,2.89h0Z"/>
    <path d="M50.96,63.33c2.75,6.67,3.77,13.85,2.98,21.02-.09,.81,.75,1.49,1.5,1.5,.88,0,1.41-.7,1.5-1.5,.82-7.39-.25-14.95-3.09-21.82-.31-.75-.99-1.27-1.85-1.05-.71,.19-1.36,1.1-1.05,1.85h0Z"/>
    <path d="M52.8,64.13c7.52-.28,14.74-4.87,17.87-11.79s1.91-15.57-3.02-21.54c-1.23-1.49-3.34,.64-2.12,2.12,4.09,4.95,5.16,12.39,2.39,18.24-2.74,5.79-8.73,9.73-15.12,9.97-1.92,.07-1.93,3.07,0,3h0Z"/>
    <path d="M55.62,24.08c2.98-1.9,6.4-3.01,9.87-3.17,.81-.04,1.5-.66,1.5-1.5,0-.78-.69-1.54-1.5-1.5-4.03,.19-7.98,1.41-11.39,3.58-.68,.43-.96,1.33-.54,2.05,.4,.68,1.37,.98,2.05,.54h0Z"/>
    <path d="M64.82,20.48c.41,2.98,.48,6.2,.26,9.28-.06,.78,.73,1.53,1.5,1.5,.86-.04,1.44-.66,1.5-1.5,.24-3.37,.09-6.73-.37-10.08-.11-.78-1.15-1.27-1.85-1.05-.86,.28-1.16,1.01-1.05,1.85h0Z"/>
    <path d="M33.62,24.9c6.25-1.41,12.75-1.28,18.95,.35,1.87,.49,2.67-2.4,.8-2.89-6.72-1.77-13.76-1.88-20.54-.35-1.88,.42-1.09,3.32,.8,2.89h0Z"/>
    <path d="M22.38,20.39c.77,.19,1.53,.42,2.27,.69,.19,.07,.37,.14,.56,.21,.05,.02,.56,.23,.33,.13,.34,.15,.68,.3,1.01,.46,.69,.34,1.36,.71,2.01,1.11,.34,.21,.67,.43,.99,.65,.16,.11,.32,.23,.48,.34,.04,.03,.48,.36,.29,.21,.62,.48,1.53,.65,2.12,0,.49-.54,.66-1.61,0-2.12-2.75-2.15-5.87-3.73-9.27-4.59-.76-.19-1.66,.25-1.85,1.05s.23,1.64,1.05,1.85h0Z"/>
    <path d="M20.22,18.9c-.89,3.5-.94,7.13-.19,10.66,.17,.79,1.1,1.25,1.85,1.05,.82-.23,1.22-1.05,1.05-1.85-.63-2.96-.56-6.11,.19-9.07,.19-.76-.25-1.66-1.05-1.85s-1.64,.23-1.85,1.05h0Z"/>
    <path d="M20.8,29.17c-4.94,5.99-6.36,14.48-3.25,21.66s9.58,11.48,16.89,12.36c1.91,.23,1.9-2.77,0-3-6.1-.73-11.69-4.91-14.15-10.54-2.61-5.97-1.5-13.35,2.64-18.35,1.22-1.48-.89-3.61-2.12-2.12h0Z"/>
  </g>
</svg>