<?xml version="1.0" encoding="UTF-8"?>
<svg id="Layer_2" data-name="Layer 2" xmlns="http://www.w3.org/2000/svg" viewBox="0 0 101.15 75.36">
  <defs>
    <style>
      .cls-1 {
        opacity: .03;
      }

      .cls-2 {
        fill: #f7931e;
      }
    </style>
  </defs>
  <g id="Layer_1-2" data-name="Layer 1">
    <g>
      <path d="M67.54,23.98c5.63,6.38,8.55,15.28,6.4,23.68-1.1,4.3-3.37,8.02-6.71,10.94-3.13,2.74-6.96,4.56-10.95,5.63-4.4,1.18-8.97,1.46-13.51,1.31-1.93-.07-1.93,2.93,0,3,8.92,.3,18.25-1.22,25.44-6.87,7.73-6.07,10.82-16.04,8.81-25.55-1.12-5.32-3.78-10.19-7.36-14.25-1.28-1.45-3.4,.68-2.12,2.12h0Z"/>
      <path d="M45.02,66.31c-13.06,.75-28.28-3.79-35.79-15.22-2.18-3.32-3.51-7.03-4.07-10.95-.27-1.9-3.17-1.09-2.89,.8,2.21,15.33,16.05,24.85,30.41,27.55,4.07,.76,8.21,1.06,12.34,.82,1.92-.11,1.93-3.11,0-3h0Z"/>
    </g>
    <g>
      <g>
        <path class="cls-2" d="M31.88,27.72c13.46-2.69,27.11-4.44,40.81-5.24"/>
        <path d="M32.27,29.17c13.34-2.65,26.84-4.38,40.41-5.19,1.92-.11,1.93-3.11,0-3-13.84,.82-27.61,2.6-41.21,5.3-1.89,.38-1.09,3.27,.8,2.89h0Z"/>
      </g>
      <g>
        <g>
          <path class="cls-2" d="M1.58,40.45c-.19-6.57-.19-13.57,1.81-19.57C7.39,12.88,15.39,6.88,23.39,3.88,37.39-1.12,55.39,1.88,63.65,14.39"/>
          <path d="M3.08,40.45c-.1-3.48-.15-6.97,.12-10.45,.25-3.23,.6-6.9,2.24-9.75,3.02-5.25,7.72-9.41,12.95-12.37,9.19-5.2,20.64-6.29,30.63-2.78,5.36,1.89,10.17,5.3,13.35,10.05,1.07,1.6,3.67,.1,2.59-1.51C58.55,4.08,46.99-.2,35.8,.1,23.45,.42,11.18,6.45,4.11,16.73c-1.07,1.56-2.03,3.17-2.54,5-.56,1.97-.9,4-1.15,6.03C-.09,31.96-.04,36.22,.08,40.45c.05,1.93,3.05,1.93,3,0h0Z"/>
        </g>
        <g>
          <path class="cls-2" d="M29.7,27.38c2.44-4.35,6.89-7.28,11.6-8.9s9.74-2.06,14.7-2.5c5.8-.51,11.61-1.02,17.41-1.53,1.22-.11,2.57-.18,3.55,.56,1.4,1.05,1.29,3.31,.24,4.71s-2.73,2.15-4.33,2.84"/>
          <path d="M30.99,28.14c3.64-6.31,10.91-8.82,17.73-9.86,4.05-.62,8.17-.87,12.25-1.22s8.41-.78,12.62-1.1c1.58-.12,3.49,.11,2.76,2.21-.59,1.7-2.73,2.47-4.24,3.13-1.77,.77-.24,3.35,1.51,2.59,3.22-1.4,7.14-4.17,5.55-8.27-.76-1.95-2.67-2.72-4.65-2.71-2.44,.02-4.91,.4-7.34,.61-5.05,.44-10.11,.82-15.15,1.35-4.61,.49-9.2,1.24-13.47,3.1s-7.88,4.71-10.17,8.67c-.97,1.67,1.62,3.19,2.59,1.51h0Z"/>
        </g>
        <g>
          <path class="cls-2" d="M1.55,40.69c8.97-5.74,18.68-10.32,28.8-13.64"/>
          <path d="M2.31,41.98c8.88-5.67,18.43-10.19,28.44-13.49,1.82-.6,1.04-3.5-.8-2.89-10.24,3.38-20.06,7.99-29.15,13.79-1.62,1.04-.12,3.63,1.51,2.59h0Z"/>
        </g>
      </g>
      <g>
        <path class="cls-2" d="M19.94,4.93c6.05-2.17,13.01,1.16,15.61,6.93"/>
        <path d="M20.34,6.37c5.5-1.91,11.52,1.05,13.91,6.24,.34,.74,1.4,.92,2.05,.54,.76-.44,.88-1.31,.54-2.05-2.91-6.34-10.63-9.94-17.3-7.62-.76,.27-1.27,1.03-1.05,1.85,.2,.74,1.08,1.31,1.85,1.05h0Z"/>
      </g>
      <g>
        <path class="cls-2" d="M30.32,2.15c6.05-2.17,13.01,1.16,15.61,6.93"/>
        <path d="M30.72,3.6c5.5-1.91,11.52,1.05,13.91,6.24,.34,.74,1.4,.92,2.05,.54,.76-.44,.88-1.31,.54-2.05C44.3,1.99,36.58-1.61,29.92,.71c-.76,.27-1.27,1.03-1.05,1.85,.2,.74,1.08,1.31,1.85,1.05h0Z"/>
      </g>
      <g>
        <path class="cls-2" d="M31.06,27.87c13.46-2.69,27.11-4.44,40.81-5.24"/>
        <path d="M31.46,29.31c13.34-2.65,26.84-4.38,40.41-5.19,1.92-.11,1.93-3.11,0-3-13.84,.82-27.61,2.6-41.21,5.3-1.89,.38-1.09,3.27,.8,2.89h0Z"/>
      </g>
    </g>
    <path d="M42.1,35.52c1.93,0,1.93-3,0-3s-1.93,3,0,3h0Z"/>
    <path d="M66.38,34.71c1.93,0,1.93-3,0-3s-1.93,3,0,3h0Z"/>
    <path d="M50.65,43.26c3.05,1.01,6.4,.7,9.26-.72,.7-.35,.96-1.4,.54-2.05-.46-.72-1.3-.91-2.05-.54-.17,.08-.33,.16-.5,.24,.27-.12-.1,.04-.16,.06-.3,.11-.61,.21-.93,.3s-.63,.16-.95,.21c-.09,.02-.18,.03-.27,.04,.17-.02,.16-.02-.01,0-.16,.01-.32,.03-.48,.04-.65,.04-1.29,.01-1.94-.05-.11-.01-.09-.01,.05,0-.09-.01-.18-.03-.27-.05-.16-.03-.32-.06-.48-.1-.34-.08-.67-.17-1-.28-.75-.25-1.67,.29-1.85,1.05-.19,.83,.25,1.58,1.05,1.85h0Z"/>
    <g class="cls-1">
      <path d="M7.9,44.19c13.39-9.67,30.06-12.67,46.2-13.83,5.09-.37,10.19-.58,15.29-.79,1.62-.07,3-1.33,3-3,0-1.57-1.37-3.07-3-3-17.74,.73-35.85,1.61-52.41,8.66-4.27,1.82-8.34,4.06-12.11,6.77-1.31,.95-1.95,2.61-1.08,4.1,.76,1.3,2.78,2.03,4.1,1.08h0Z"/>
    </g>
    <g class="cls-1">
      <path d="M31.5,31.2c3.14-.43,6.21-1.15,9.32-1.76s6.52-1.01,9.83-1.21c6.66-.42,13.34-.63,20.01-.92,1.92-.09,1.93-3.09,0-3-6.83,.3-13.67,.5-20.49,.96-3.25,.22-6.48,.59-9.68,1.2s-6.49,1.4-9.78,1.85c-.81,.11-1.23,1.14-1.05,1.85,.23,.87,1.05,1.16,1.85,1.05h0Z"/>
    </g>
    <path d="M77.74,43.88c4.72,.02,9.4-1.27,13.45-3.71,1.65-1,.14-3.59-1.51-2.59-3.61,2.18-7.72,3.32-11.93,3.3-1.93,0-1.93,2.99,0,3h0Z"/>
    <path d="M33.85,69.26v3.2c0,.38,.17,.79,.44,1.06s.69,.46,1.06,.44c.81-.04,1.5-.66,1.5-1.5v-3.2c0-.38-.17-.79-.44-1.06s-.69-.46-1.06-.44c-.81,.04-1.5,.66-1.5,1.5h0Z"/>
    <path d="M35.13,74.47l3.5,.85c.39,.09,.81,.05,1.16-.15,.31-.18,.61-.54,.69-.9,.09-.38,.07-.81-.15-1.16-.21-.32-.51-.6-.9-.69l-3.5-.85c-.39-.09-.81-.05-1.16,.15-.31,.18-.61,.54-.69,.9-.09,.38-.07,.81,.15,1.16,.21,.32,.51,.6,.9,.69h0Z"/>
    <path d="M50.39,67.94l-.12,4.09c-.02,.79,.71,1.54,1.5,1.5s1.48-.66,1.5-1.5l.12-4.09c.02-.79-.71-1.54-1.5-1.5s-1.48,.66-1.5,1.5h0Z"/>
    <path d="M51.52,74.09l4.09,.07c.78,.01,1.54-.7,1.5-1.5s-.66-1.49-1.5-1.5l-4.09-.07c-.78-.01-1.54,.7-1.5,1.5s.66,1.49,1.5,1.5h0Z"/>
    <path d="M21.69,50.5c-3.81-1.25-5.74,3.3-6.52,6.16-.89,3.29-.92,6.76-.16,10.08,.44,1.88,3.33,1.08,2.89-.8-.57-2.46-.61-5.03-.08-7.5,.25-1.17,.6-2.37,1.11-3.46,.35-.74,.96-1.92,1.96-1.59,1.84,.6,2.63-2.29,.8-2.89h0Z"/>
    <path d="M17.05,66.39c-.05-.04-.1-.09-.14-.15l.23,.3c-.05-.06-.08-.13-.12-.2l.15,.36c-.04-.09-.06-.18-.07-.27l.05,.4c0-.08,0-.15,0-.23l-.05,.4s0-.03,0-.05l-.69,.9c.1-.07,.21-.13,.32-.18l-.36,.15c.12-.05,.25-.09,.38-.11l-.4,.05c.1-.01,.2-.01,.31,0l-.4-.05c.08,.01,.16,.03,.23,.06l-.36-.15c.06,.03,.12,.06,.18,.11l-.3-.23c.06,.05,.12,.1,.16,.16l-.23-.3c.05,.06,.08,.13,.12,.2l-.15-.36c.02,.06,.04,.11,.05,.17l-.05-.4c0,.06,0,.12,0,.18l.05-.4c0,.05-.02,.1-.04,.15l.15-.36s-.03,.06-.06,.09l.23-.3s-.06,.06-.09,.09l.3-.23s-.09,.06-.14,.08l.36-.15c-.05,.02-.1,.04-.16,.04l.4-.05c-.06,0-.12,0-.18,0l.4,.05s-.09-.02-.13-.04l.36,.15s-.06-.03-.09-.05l.3,.23s-.05-.05-.07-.07l.23,.3s-.03-.05-.05-.08c-.09-.17-.22-.32-.39-.42-.14-.13-.31-.22-.51-.27-.2-.06-.4-.07-.6-.03-.2,0-.39,.07-.56,.18-.32,.21-.6,.51-.69,.9l-.05,.4c0,.27,.07,.52,.2,.76,.22,.45,.69,.76,1.15,.91,.35,.11,.8,.1,1.16,0s.73-.3,.96-.58,.36-.46,.46-.82c.06-.2,.09-.42,.08-.63-.01-.2-.03-.41-.1-.61-.04-.12-.12-.31-.2-.45s-.21-.3-.3-.41-.2-.19-.32-.28c-.08-.06-.16-.13-.25-.18-.15-.08-.31-.14-.46-.2-.21-.08-.45-.09-.66-.11s-.46,.03-.68,.06c-.1,.02-.2,.04-.3,.08-.22,.08-.44,.17-.64,.29-.25,.16-.48,.34-.63,.6-.16,.28-.2,.54-.22,.86-.02,.23,.02,.47,.08,.69s.15,.44,.26,.63c.09,.14,.2,.28,.31,.41,.04,.05,.08,.09,.13,.13,.14,.15,.3,.25,.48,.31,.18,.09,.37,.14,.58,.13,.21,0,.4-.04,.58-.13,.19-.06,.35-.16,.48-.31,.26-.29,.46-.66,.44-1.06s-.14-.8-.44-1.06h0Z"/>
    <path d="M90.74,53.49c1.17-10.85,2.54-21.68,4.12-32.48,.28-1.89-2.61-2.7-2.89-.8-1.62,11.07-3.03,22.16-4.23,33.28-.21,1.92,2.79,1.9,3,0h0Z"/>
    <path d="M91.85,54c1.12-10.39,2.43-20.77,3.92-31.12,.27-1.89-2.62-2.7-2.89-.8-1.53,10.61-2.88,21.25-4.03,31.91-.21,1.92,2.79,1.9,3,0h0Z"/>
    <path d="M93.94,22.06c1.93,0,1.93-3,0-3s-1.93,3,0,3h0Z"/>
    <path d="M93.22,19.77c-.16-.04-.31-.09-.47-.14-.31-.1,.2,.11,.04,.02-.07-.04-.15-.07-.22-.11-.04-.02-.42-.23-.41-.26,0,.02,.28,.23,.03,.02-.06-.05-.12-.11-.18-.16-.1-.1-.21-.28-.33-.36,.11,.07,.16,.23,.03,.03-.05-.07-.09-.14-.13-.21-.08-.14-.14-.3-.22-.43,.08,.12,.1,.25,.03,.04-.03-.08-.05-.16-.07-.23-.02-.06-.03-.13-.05-.2-.08-.34,.02,.34,0,0-.01-.17-.02-.34-.01-.51,0-.06,.03-.15,.01-.2-.03,.21-.04,.26-.02,.15,0-.05,.02-.1,.03-.15,.03-.15,.07-.3,.12-.45,.01-.04,.04-.22,.09-.24-.08,.18-.1,.23-.05,.12,.01-.03,.03-.06,.04-.09,.08-.15,.16-.3,.25-.44,.13-.2,0-.1-.02,.02,.02-.06,.12-.15,.17-.19,.13-.14,.27-.26,.41-.38,.61-.5,.56-1.61,0-2.12-.65-.59-1.47-.53-2.12,0-1.57,1.29-2.24,3.55-1.73,5.5s2.1,3.44,4,3.89c.76,.18,1.66-.24,1.85-1.05,.17-.77-.23-1.65-1.05-1.85h0Z"/>
    <path d="M89.4,14.53c-.76,2.19,0,4.72,1.68,6.28,.57,.53,1.56,.61,2.12,0s.61-1.55,0-2.12c-.2-.19-.38-.39-.55-.6l.23,.3c-.25-.33-.46-.68-.62-1.06l.15,.36c-.15-.37-.26-.76-.32-1.16l.05,.4c-.05-.4-.05-.79,0-1.19l-.05,.4c.04-.28,.11-.55,.2-.82,.26-.74-.29-1.67-1.05-1.85-.84-.19-1.57,.25-1.85,1.05h0Z"/>
    <path d="M94.38,23.27c1.91,.48,4.15-.11,5.44-1.65,.64-.76,1.1-1.66,1.25-2.65,.1-.64,.1-1.21,0-1.85-.07-.52-.25-.97-.46-1.45-.14-.32-.57-.6-.9-.69-.36-.1-.84-.05-1.16,.15s-.6,.51-.69,.9c-.1,.42-.02,.77,.15,1.16-.18-.42-.07-.16-.03-.06,.03,.09,.06,.18,.08,.27,.05,.17,.08,.34,.1,.52l-.05-.4c.04,.35,.04,.7,0,1.06l.05-.4c-.03,.22-.08,.43-.14,.64-.02,.08-.05,.15-.08,.23-.06,.15-.04,.1,.06-.13-.02,.05-.05,.1-.07,.15-.08,.17-.19,.33-.29,.49-.09,.13-.06,.09,.09-.11-.03,.04-.07,.08-.1,.12-.06,.07-.13,.14-.19,.2s-.14,.12-.21,.19c-.12,.1-.08,.07,.12-.09-.04,.03-.09,.06-.13,.09-.15,.1-.32,.2-.48,.28-.36,.18,.24-.07,0,0-.08,.02-.15,.05-.23,.08-.2,.06-.41,.11-.62,.14l.4-.05c-.35,.05-.69,.05-1.04,.01l.4,.05c-.16-.02-.31-.05-.47-.09-.76-.19-1.66,.24-1.85,1.05s.23,1.64,1.05,1.85h0Z"/>
    <path d="M97.95,16.72c-.05,.37-.15,.73-.29,1.08l.15-.36c-.15,.34-.34,.67-.56,.96l.23-.3c-.24,.31-.52,.59-.83,.84l.3-.23c-.32,.25-.67,.45-1.04,.61l.36-.15c-.2,.08-.4,.16-.61,.21-.36,.1-.7,.36-.9,.69s-.27,.8-.15,1.16c.25,.77,1.04,1.28,1.85,1.05,1.1-.31,2.15-.92,2.92-1.77s1.32-1.87,1.47-2.98c.06-.2,.07-.4,.03-.6,0-.2-.07-.39-.18-.56-.18-.31-.54-.61-.9-.69-.38-.09-.81-.07-1.16,.15-.3,.2-.64,.52-.69,.9h0Z"/>
    <path d="M90.43,58.22c-.13,0-.26-.02-.4-.03-.07,0-.13-.01-.2-.02-.27-.02,.07,0,.1,.01-.28-.08-.59-.1-.87-.19-.11-.03-.22-.08-.33-.11-.19-.06,.27,.13,.09,.04-.06-.03-.12-.06-.18-.08-.12-.06-.23-.12-.34-.2l-.04-.03c-.11-.08-.11-.07,0,0,.1,.08,.1,.08,0,0l-.06-.06c-.09-.08-.16-.17-.24-.25-.17-.18,.06,.07,.07,.1-.01-.04-.07-.1-.1-.15-.05-.08-.1-.25-.17-.31,.13,.12,.11,.28,.05,.12-.03-.08-.05-.16-.07-.25-.01-.05-.02-.12-.04-.17,.01,.03,.02,.39,.02,.15,0-.1,.02-.23,0-.34,0,.04-.09,.37-.01,.15,.02-.05,.03-.11,.04-.16,.01-.05,.07-.19-.02,.02-.1,.24,0,0,.04-.05,0-.01,.1-.12,.1-.15-.02,.16-.19,.22-.06,.1,.04-.04,.09-.08,.13-.12,.16-.17-.06,.05-.1,.06,.1-.05,.2-.14,.3-.2,.05-.03,.11-.06,.16-.09,.04-.02,.08-.04,.12-.06,.1-.05,.05-.03-.15,.06,.05,.02,.31-.11,.38-.13,.13-.04,.27-.07,.4-.09,.23-.05-.09,0-.09,0,0-.01,.21-.02,.2-.02,.15,0,.31,0,.46,0h.05c.13,.02,.14,.01,0,0h-.1c.05,0,.1,0,.15,.01,.12,.02,.23,.05,.34,.09,0,0,.18,.05,.19,.07-.01-.02-.27-.13-.09-.03,.12,.06,.25,.18,.37,.22-.03,0-.28-.24-.1-.07,.04,.04,.09,.08,.13,.12,.08,.08,.15,.19,.24,.26-.03-.02-.2-.3-.08-.1,.03,.05,.06,.1,.09,.15s.06,.1,.08,.15c.13,.23-.08-.25-.03-.08,.04,.12,.07,.25,.11,.37,.06,.24-.02-.11-.02-.14-.01,.07,0,.18,0,.26,0,.05-.01,.11-.01,.17,0-.1,.06-.35,0-.11-.01,.05-.03,.11-.05,.16,0,.03-.02,.05-.03,.08-.04,.11-.02,.05,.07-.16-.07,.05-.14,.25-.19,.33-.1,.16,.21-.23,.08-.11-.05,.05-.1,.1-.15,.15-.15,.17,.07-.06,.11-.08-.07,.03-.15,.09-.21,.13-.14,.08-.09-.04,.13-.05-.07,0-.17,.06-.24,.07-.76,.19-1.29,1.09-1.05,1.85s1.03,1.25,1.85,1.05c1.65-.42,2.85-2.14,2.68-3.83-.18-1.79-1.47-3.26-3.2-3.74s-3.67-.03-4.96,1.14-1.41,3.3-.42,4.75c1.15,1.68,3.08,2.22,5.01,2.33,.78,.05,1.53-.72,1.5-1.5-.04-.85-.66-1.45-1.5-1.5h0Z"/>
    <path d="M92.25,38.47c-.08-.07-.15-.14-.21-.22l.23,.3c-.07-.09-.13-.19-.17-.3l.15,.36c-.05-.13-.09-.26-.11-.4l.05,.4c-.01-.11-.01-.23,0-.34l-.05,.4s0-.05,.01-.08l-.69,.9c.15-.11,.31-.2,.48-.27l-.36,.15c.18-.08,.37-.13,.57-.16l-.4,.05c.15-.02,.3-.02,.46,0l-.4-.05c.12,.02,.23,.05,.34,.09l-.36-.15c.1,.04,.18,.1,.27,.16l-.3-.23c.09,.07,.17,.15,.25,.25l-.23-.3c.07,.09,.13,.19,.17,.3l-.15-.36c.03,.08,.06,.17,.07,.26l-.05-.4c.01,.09,.01,.18,0,.27l.05-.4c-.01,.08-.03,.15-.06,.22l.15-.36c-.02,.05-.05,.1-.08,.14l.23-.3c-.04,.05-.08,.09-.13,.13l.3-.23c-.07,.05-.14,.09-.21,.12l.36-.15c-.08,.03-.16,.05-.24,.07l.4-.05c-.09,.01-.18,.01-.27,0l.4,.05c-.07-.01-.14-.03-.2-.06l.36,.15s-.09-.05-.13-.08l.3,.23s-.08-.07-.11-.11l.23,.3s-.05-.07-.07-.12c-.16-.32-.56-.6-.9-.69-.36-.1-.84-.05-1.16,.15s-.6,.51-.69,.9l-.05,.4c0,.27,.07,.52,.2,.76,.25,.51,.76,.85,1.28,1.02,.41,.13,.92,.12,1.33,0,1.01-.3,1.77-1.24,1.7-2.32-.02-.24-.05-.48-.13-.71-.15-.4-.29-.63-.56-.96-.31-.39-.75-.63-1.21-.8-.52-.19-1.07-.16-1.61-.07-.15,.03-.3,.07-.45,.12-.27,.1-.54,.21-.78,.36-.27,.17-.52,.35-.68,.63s-.2,.58-.22,.91c-.02,.28,.03,.57,.09,.83s.18,.53,.32,.76c.1,.16,.22,.31,.34,.46,.06,.07,.12,.13,.19,.19,.31,.26,.64,.44,1.06,.44,.37,0,.81-.16,1.06-.44s.46-.66,.44-1.06-.14-.8-.44-1.06h0Z"/>
  </g>
</svg>