<?xml version="1.0" encoding="UTF-8"?>
<svg id="Layer_2" data-name="Layer 2" xmlns="http://www.w3.org/2000/svg" viewBox="0 0 59.76 112.26">
  <g id="Layer_1-2" data-name="Layer 1">
    <path d="M21.01,98.28c-6.62,.6-10.95-5.78-10.02-11.97,1.07-7.11,7.74-11.95,14.27-13.73s15.11-.7,19.8,5.04c4.53,5.54,4.75,14.17-1,18.93s-13.87,3.95-20.46,2.94c-1.89-.29-2.7,2.6-.8,2.89,7.13,1.1,15.5,1.64,21.81-2.53,3.38-2.24,5.89-5.77,6.6-9.8s-.17-8.52-2.32-12.15c-4.53-7.64-13.8-10.18-22.15-8.72-7.9,1.38-16.05,6.7-18.29,14.76-2.3,8.25,3.24,18.18,12.57,17.34,1.91-.17,1.93-3.17,0-3h0Z"/>
    <path d="M31.53,85.48v-.02c-.02,.13-.03,.27-.05,.4,0-.05,.02-.1,.04-.14l-.15,.36s.05-.09,.08-.13l-.23,.3s.07-.08,.12-.12l-.3,.23c.05-.04,.1-.07,.16-.1l-.36,.15c.06-.02,.12-.04,.18-.05l-.4,.05s.1,0,.15,0l-.4-.05s.06,.01,.09,.02l-1.1-1.45c0,.26-.02,.51-.02,.77l.74-1.3s-.04,.03-.06,.04l.36-.15s-.04,.02-.07,.02l.4-.05s-.05,0-.08,0l.4,.05s-.06-.01-.1-.03l.36,.15s-.07-.04-.1-.06l.3,.23s-.08-.07-.11-.11l.23,.3s-.04-.07-.06-.1l.15,.36s-.02-.06-.03-.1l.05,.4s0-.05,0-.08l-.05,.4s.01-.05,.02-.08l-.15,.36s.02-.04,.04-.06l-.23,.3h0c-.71-.01-1.41-.01-2.12-.01h0c-.08-.09-.16-.19-.23-.29,.02,.03,.04,.05,.05,.08l-.15-.36s.02,.06,.03,.1l-.05-.4s0,.07,0,.1l.05-.4s-.02,.07-.03,.11l.15-.36s-.05,.09-.08,.14l.23-.3c-.04,.05-.09,.1-.14,.14l.3-.23c-.05,.04-.11,.07-.17,.1l.36-.15c-.05,.02-.1,.04-.15,.04l.4-.05s-.08,0-.13,0l.4,.05s-.06-.01-.1-.03l.36,.15s-.05-.03-.08-.04l.3,.23s-.05-.04-.07-.07l.23,.3s-.01-.02-.02-.02c-.09-.17-.22-.32-.39-.42-.14-.13-.31-.22-.51-.27-.2-.06-.4-.07-.6-.03-.2,0-.39,.07-.56,.18l-.3,.23c-.19,.19-.31,.41-.39,.66l-.05,.4c0,.27,.07,.52,.2,.76,.09,.12,.18,.25,.28,.36,.01,.01,.02,.02,.03,.03,.1,.09,.22,.18,.33,.25,.01,0,.02,.01,.03,.02,.12,.06,.26,.12,.38,.16,.03,0,.05,.02,.08,.02,.33,.07,.45,.07,.74,.03,.09-.01,.18-.02,.27-.04s.18-.07,.26-.1c.11-.05,.22-.09,.33-.16,.13-.09,.25-.18,.36-.28,.02-.02,.04-.04,.07-.06,.1-.11,.19-.24,.28-.36,.02-.03,.04-.05,.05-.08,.07-.13,.13-.28,.18-.42,0-.03,.02-.05,.02-.08,.03-.13,.05-.3,.06-.44,0-.01,0-.03,0-.04,0-.08-.02-.17-.03-.24s-.02-.16-.03-.24c-.08-.35-.25-.55-.46-.82-.14-.15-.3-.25-.48-.31-.18-.09-.37-.14-.58-.13l-.4,.05c-.25,.07-.47,.2-.66,.39-.24,.29-.31,.38-.43,.74-.05,.15-.07,.35-.08,.48-.01,.19,.01,.4,.08,.58,.13,.33,.24,.56,.49,.82,.13,.13,.29,.26,.46,.34,.31,.14,.56,.25,.92,.23,.33-.01,.4-.04,.66-.15,.05-.02,.15-.06,.22-.1,.24-.15,.42-.31,.56-.56,.11-.17,.17-.36,.18-.56,.02-.08,.03-.15,.03-.23,0-.04,0-.08,0-.11,0-.07,0-.13,0-.2,0-.14,0-.28,.01-.43l-.05-.4c-.05-.2-.14-.37-.27-.51-.07-.11-.16-.2-.27-.27-.14-.13-.31-.22-.51-.27-.02,0-.05-.01-.07-.02-.15-.03-.3-.05-.45-.06-.03,0-.06,0-.08,0-.15,0-.31,.03-.45,.06-.05,0-.1,.02-.14,.04-.14,.05-.28,.11-.41,.17-.03,.01-.05,.03-.07,.04-.32,.21-.51,.41-.72,.72-.01,.02-.03,.04-.04,.06-.07,.13-.13,.28-.18,.42-.06,.17-.06,.36-.09,.54,0,.21,.04,.4,.13,.58,.06,.19,.16,.35,.31,.48,.14,.15,.3,.25,.48,.31,.18,.09,.37,.14,.58,.13l.4-.05c.25-.07,.47-.2,.66-.39l.23-.3c.14-.23,.2-.49,.2-.76h0Z"/>
    <path d="M41.65,102.18c.09,.03,.18,.07,.28,.11,.21,.08-.36-.16-.14-.06,.08,.04,.17,.07,.25,.11,.31,.14,.62,.28,.93,.41,.87,.39,1.74,.77,2.63,1.12,1.51,.59,3.3,1.3,4.95,1.11,1.21-.14,2.09-.71,2.56-1.86,.38-.94-.57-1.88-1.45-1.9-.35,0-.7-.01-1.05-.02-.78-.02-1.54,.7-1.5,1.5s.66,1.48,1.5,1.5c.35,0,.7,.01,1.05,.02l-1.45-1.9c.19-.48,.09-.21,.01-.1,.18-.22,.23-.28,.13-.18-.11,.1-.05,.06,.18-.13-.03,0-.14,.08-.17,.1-.04,.03,.4-.12,.11-.05-.07,.02-.19,.02-.25,.06,.31-.15,.29-.03,.05-.02-.18,0-.37,0-.55-.02-.42-.03,.24,.06-.03,0-.09-.02-.18-.03-.27-.05-.25-.05-.5-.11-.75-.18-.48-.13-.96-.29-1.43-.46s-.96-.36-1.44-.56c-.06-.03-.13-.05-.19-.08,.2,.08,.22,.09,.07,.03-.12-.05-.25-.11-.37-.16-.21-.09-.41-.18-.62-.27-.74-.33-1.48-.68-2.24-.97s-1.68,.3-1.85,1.05c-.19,.85,.26,1.55,1.05,1.85h0Z"/>
    <path d="M26.35,59.98l4.84-.56-1.45-1.9c-.66,1.84-1.32,3.68-1.98,5.52-.32,.9,.52,1.94,1.45,1.9,1.77-.08,3.54-.16,5.31-.24,.78-.04,1.54-.66,1.5-1.5-.04-.78-.66-1.54-1.5-1.5-1.77,.08-3.54,.16-5.31,.24l1.45,1.9c.66-1.84,1.32-3.68,1.98-5.52,.3-.85-.51-2.01-1.45-1.9l-4.84,.56c-.78,.09-1.54,.63-1.5,1.5,.03,.74,.67,1.6,1.5,1.5h0Z"/>
    <path d="M17.76,47.21l5.36-2.48-2.2-1.69c-.98,2.98-1.96,5.95-2.94,8.93-.34,1.02,.78,2.26,1.85,1.85,1.72-.67,3.45-1.35,5.17-2.02,.73-.29,1.32-1.02,1.05-1.85-.23-.71-1.06-1.35-1.85-1.05-1.72,.67-3.45,1.35-5.17,2.02l1.85,1.85c.98-2.98,1.96-5.95,2.94-8.93,.19-.57-.09-1.23-.54-1.58-.51-.39-1.1-.38-1.67-.12l-5.36,2.48c-.71,.33-.95,1.42-.54,2.05,.47,.74,1.29,.89,2.05,.54h0Z"/>
    <path d="M18.56,27.1l7.63-1.96-1.85-1.85c-1.43,3.84-2.86,7.68-4.29,11.52-.4,1.06,.81,2.18,1.85,1.85,2.64-.87,5.28-1.73,7.92-2.6,.77-.25,1.27-1.04,1.05-1.85-.21-.75-1.07-1.3-1.85-1.05-2.64,.87-5.28,1.73-7.92,2.6l1.85,1.85c1.43-3.84,2.86-7.68,4.29-11.52,.42-1.11-.82-2.11-1.85-1.85l-7.63,1.96c-1.87,.48-1.08,3.37,.8,2.89h0Z"/>
    <path d="M1.83,6.16l4.75-1.62,2.37-.81,1.02-.35c.16-.06,.9-.41,1.03-.37l-.66-.39,.15,.16-.39-.66c.06-.13,.06-.12,.01,.03-.04,.16-.09,.31-.14,.47-.11,.35-.22,.69-.33,1.03-.2,.63-.4,1.26-.6,1.9-.42,1.32-.84,2.64-1.26,3.97-.84,2.64-1.68,5.29-2.52,7.93-.34,1.06,.77,2.2,1.85,1.85,4.35-1.45,8.69-2.9,13.04-4.36,1.14-.38,1.38-1.62,.66-2.51-.15-.19-.31-.38-.46-.57-.51-.63-1.59-.53-2.12,0-.62,.62-.51,1.49,0,2.12,.15,.19,.31,.38,.46,.57l.66-2.51c-4.35,1.45-8.69,2.9-13.04,4.36l1.85,1.85c1.59-5,3.25-9.98,4.77-15,.32-1.05,.31-2.34-.77-2.97-1.16-.68-2.54,.07-3.66,.45L1.03,3.27C-.78,3.89,0,6.79,1.83,6.16h0Z"/>
    <path d="M48.54,94.2c2.54,.67,5.07,1.35,7.61,2.02,.76,.2,1.66-.25,1.85-1.05s-.24-1.63-1.05-1.85c-2.54-.67-5.07-1.35-7.61-2.02-.76-.2-1.66,.25-1.85,1.05s.24,1.63,1.05,1.85h0Z"/>
    <path d="M58.43,95.85l1.12-2.54c.11-.17,.17-.36,.18-.56,.04-.2,.04-.4-.03-.6-.1-.35-.36-.73-.69-.9-.35-.18-.77-.28-1.16-.15-.35,.11-.74,.34-.9,.69l-1.12,2.54c-.11,.17-.17,.36-.18,.56-.04,.2-.04,.4,.03,.6,.1,.35,.36,.73,.69,.9,.35,.18,.77,.28,1.16,.15,.35-.11,.74-.34,.9-.69h0Z"/>
    <path d="M19.53,97.45c1.25,5.1,4.19,9.78,8.29,13.08,.63,.51,1.51,.62,2.12,0,.53-.53,.63-1.61,0-2.12-3.73-3-6.38-7.1-7.52-11.76-.46-1.87-3.35-1.08-2.89,.8h0Z"/>
    <path d="M30.73,111l.7-.43-1.82-.23c.05,.04,.09,.08,.13,.13l-.23-.3c.04,.06,.08,.11,.1,.18l-.15-.36c.03,.07,.05,.15,.06,.23l-.05-.4c.01,.08,.01,.17,0,.25l.05-.4c-.01,.07-.03,.14-.06,.21l.15-.36c-.03,.06-.06,.12-.1,.18l.23-.3s-.08,.09-.12,.12l.3-.23c-.06,.04-.11,.08-.18,.1l.36-.15c-.07,.03-.15,.05-.23,.06l.4-.05c-.08,0-.16,0-.24,0l.4,.05c-.08-.01-.16-.03-.23-.06l.36,.15c-.06-.03-.11-.06-.17-.1l.3,.23s-.07-.06-.11-.1c-.14-.15-.3-.25-.48-.31-.18-.09-.37-.14-.58-.13-.21,0-.4,.04-.58,.13-.19,.06-.35,.16-.48,.31l-.23,.3c-.14,.23-.2,.49-.2,.76l.05,.4c.07,.25,.2,.47,.39,.66,.03,.04,.07,.07,.11,.1,.13,.1,.26,.22,.41,.3,.08,.04,.16,.07,.24,.1s.16,.07,.24,.1c.05,.02,.09,.03,.14,.04,.15,.03,.3,.05,.45,.06,.02,0,.05,0,.07,0,.05,0,.1,0,.15,0,.15-.02,.36-.03,.53-.08s.33-.13,.48-.19c.04-.02,.09-.04,.13-.07,.12-.08,.23-.17,.34-.26,.02-.02,.04-.03,.06-.05,.12-.12,.22-.26,.32-.4,.03-.04,.05-.08,.07-.12,.07-.15,.15-.31,.2-.48s.06-.35,.08-.52c.03-.22-.02-.46-.06-.67,0-.05-.02-.1-.04-.15-.05-.14-.11-.28-.17-.42-.01-.02-.02-.05-.03-.07-.08-.15-.21-.3-.32-.43-.04-.04-.08-.08-.12-.12l-.3-.23c-.17-.11-.36-.17-.56-.18-.13-.04-.27-.04-.4,0-.2,0-.39,.07-.56,.18l-.7,.43c-.17,.09-.32,.22-.42,.39-.13,.14-.22,.31-.27,.51-.06,.2-.07,.4-.03,.6,0,.2,.07,.39,.18,.56l.23,.3c.19,.19,.41,.31,.66,.39l.4,.05c.27,0,.52-.07,.76-.2h0Z"/>
    <path d="M16.05,85.5c.22,.09,.44,.2,.68,.26s.49,.09,.73,.12c.36,.04,.7,0,1.06-.06,.59-.09,1.18-.34,1.66-.68,1.18-.82,2.05-2.14,1.97-3.62-.02-.4-.15-.77-.44-1.06-.26-.26-.69-.46-1.06-.44s-.79,.14-1.06,.44-.46,.66-.44,1.06c0,.14,0,.29-.01,.43l.05-.4c-.03,.22-.09,.43-.17,.64l.15-.36c-.1,.22-.22,.42-.36,.61l.23-.3c-.16,.2-.34,.38-.54,.54l.3-.23c-.22,.17-.45,.31-.71,.42l.36-.15c-.25,.11-.51,.18-.78,.22l.4-.05c-.22,.03-.44,.03-.66,0l.4,.05c-.19-.03-.37-.08-.55-.15l.36,.15-.04-.02c-.17-.11-.36-.17-.56-.18-.2-.04-.4-.04-.6,.03-.35,.1-.73,.36-.9,.69-.18,.35-.28,.77-.15,1.16,.11,.34,.34,.75,.69,.9h0Z"/>
    <path d="M25.93,77.96c.41,.32,.75,.54,1.24,.73,.34,.14,.68,.19,1.05,.23,.74,.09,1.47-.08,2.14-.4,1.33-.62,2.14-2.06,2.22-3.49,.04-.78-.72-1.53-1.5-1.5-.85,.04-1.46,.66-1.5,1.5,0,.08-.01,.16-.02,.24l.05-.4c-.03,.22-.09,.43-.18,.64l.15-.36c-.09,.2-.2,.39-.34,.57l.23-.3c-.14,.17-.29,.33-.47,.47l.3-.23c-.16,.12-.33,.22-.52,.3l.36-.15c-.21,.09-.43,.14-.65,.17l.4-.05c-.23,.02-.45,.02-.68,0l.4,.05c-.23-.03-.44-.09-.65-.18l.36,.15c-.19-.08-.37-.18-.53-.31l.3,.23-.05-.04c-.33-.26-.63-.44-1.06-.44-.37,0-.81,.16-1.06,.44s-.46,.66-.44,1.06c.02,.37,.13,.82,.44,1.06h0Z"/>
  </g>
</svg>